#!OML:ASF E:\Style4\Style4.ASF
:FULLY-SPECIFIED
:DEGREES
2362
root -0.0850545 17.1335 -3.01144 8.16091 -3.48546 2.19769
lowerback 19.7745 2.65824 -2.1399
upperback 11.9418 3.07059 0.0568371
thorax 1.7473 1.41342 0.721532
lowerneck -0.125589 -9.39236 -6.81191
upperneck -0.993716 -12.5453 9.45107
head 0.835968 -6.28907 4.06552
rclavicle 1.03368e-014 -1.98785e-015
rhumerus 7.10537 72.9674 -48.9166
rradius 67.5978
rwrist -21.6906
rhand -11.9135 16.0804
rfingers 7.12502
rthumb 14.1403 -13.4184
lclavicle 1.03368e-014 -1.98785e-015
lhumerus 30.6714 9.74905 82.2984
lradius 54.3702
lwrist 32.2587
lhand -19.8561 22.8264
lfingers 7.12502
lthumb 6.47874 52.7073
rfemur -37.8738 -0.164317 18.5218
rtibia 49.0851
rfoot -18.9948 -11.5342
rtoes -10.2151
lfemur -35.7337 2.27132 -21.0554
ltibia 47.6237
lfoot -19.9232 8.77132
ltoes -14.2083
2363
root -0.072861 17.0881 -3.01091 7.93712 -3.16773 2.02445
lowerback 19.7935 2.55528 -2.05325
upperback 12.0854 2.9545 0.0134147
thorax 1.90518 1.36038 0.650971
lowerneck -0.240695 -9.35715 -6.74675
upperneck -1.06929 -12.4956 9.96843
head 0.863189 -6.26469 4.22954
rclavicle 1.07344e-014 -7.55382e-015
rhumerus 7.78089 72.9404 -46.8765
rradius 67.5694
rwrist -22.1116
rhand -11.1777 16.2506
rfingers 7.12502
rthumb 14.8493 -13.1973
lclavicle 1.07344e-014 -7.55382e-015
lhumerus 29.8981 9.3738 84.3965
lradius 55.3159
lwrist 34.0467
lhand -19.5033 23.6833
lfingers 7.12502
lthumb 6.81931 53.5535
rfemur -38.0126 -0.423937 18.7188
rtibia 49.9099
rfoot -19.4563 -11.5393
rtoes -9.47199
lfemur -36.0256 2.21919 -20.9069
ltibia 48.5035
lfoot -20.2377 8.63089
ltoes -14.5444
2364
root -0.0587985 17.0432 -3.00852 7.64822 -2.90652 1.96688
lowerback 19.9005 2.46868 -2.08356
upperback 12.1982 2.83797 -0.0428827
thorax 1.98092 1.30216 0.628087
lowerneck -0.295969 -9.3075 -6.75722
upperneck -1.15245 -12.4284 10.4715
head 0.88 -6.23281 4.40829
rclavicle -1.11319e-014 -5.96354e-015
rhumerus 8.61001 72.9481 -44.6767
rradius 67.4434
rwrist -22.8326
rhand -10.4538 16.544
rfingers 7.12502
rthumb 15.5466 -12.8511
lclavicle -1.11319e-014 -5.96354e-015
lhumerus 28.9522 8.85208 86.2168
lradius 56.0023
lwrist 36.219
lhand -19.5306 24.3783
lfingers 7.12502
lthumb 6.79293 54.2494
rfemur -38.0623 -0.709369 18.7809
rtibia 50.7442
rfoot -19.8641 -11.3267
rtoes -7.85879
lfemur -36.1932 2.18621 -20.8895
ltibia 49.3399
lfoot -20.6518 8.31963
ltoes -14.2417
2365
root -0.043692 16.9992 -3.00382 7.35206 -2.69146 1.85675
lowerback 20.0809 2.37883 -2.04628
upperback 12.2371 2.72423 -0.107014
thorax 1.94133 1.25045 0.554062
lowerneck -0.268131 -9.23775 -6.73847
upperneck -1.16449 -12.3403 10.8681
head 0.892604 -6.191 4.54971
rclavicle -9.54166e-015 6.75868e-015
rhumerus 9.36568 73.021 -42.6385
rradius 67.1863
rwrist -23.6561
rhand -9.78657 16.985
rfingers 7.12502
rthumb 16.1892 -12.359
lclavicle -9.54166e-015 6.75868e-015
lhumerus 27.8338 8.19704 87.7621
lradius 56.4403
lwrist 38.8327
lhand -19.6777 25.1324
lfingers 7.12502
lthumb 6.65097 55.0079
rfemur -38.1086 -0.927243 18.8739
rtibia 51.5479
rfoot -20.2867 -11.1654
rtoes -6.88759
lfemur -36.3244 2.17829 -20.8109
ltibia 50.1402
lfoot -21.0173 7.87278
ltoes -13.0119
2366
root -0.0297063 16.955 -2.99903 7.10787 -2.48028 1.66624
lowerback 20.2972 2.2875 -1.9288
upperback 12.1858 2.61946 -0.152213
thorax 1.78597 1.20802 0.450439
lowerneck -0.21234 -9.1615 -6.79041
upperneck -1.04817 -12.2529 11.253
head 0.946273 -6.14757 4.69943
rclavicle -3.97569e-016 -5.56597e-015
rhumerus 10.0131 73.1884 -40.7012
rradius 66.8486
rwrist -24.2818
rhand -9.01618 17.4625
rfingers 7.12502
rthumb 16.9309 -11.8195
lclavicle -3.97569e-016 -5.56597e-015
lhumerus 26.397 7.3068 89.0088
lradius 56.8441
lwrist 41.8147
lhand -20.1808 26.3054
lfingers 7.12502
lthumb 6.16526 56.1957
rfemur -38.1962 -1.07072 19.0469
rtibia 52.3013
rfoot -20.6666 -11.1814
rtoes -6.82171
lfemur -36.5126 2.18486 -20.6482
ltibia 50.8945
lfoot -21.2854 7.65257
ltoes -12.6388
2367
root -0.0141969 16.914 -2.99427 6.89626 -2.27503 1.64453
lowerback 20.405 2.21667 -1.96802
upperback 12.1514 2.51987 -0.200492
thorax 1.69746 1.15947 0.435272
lowerneck -0.183944 -9.09745 -6.83752
upperneck -0.91631 -12.178 11.9286
head 0.930028 -6.10208 4.43382
rclavicle -1.82882e-014 8.34896e-015
rhumerus 10.8328 73.3164 -38.4703
rradius 66.5612
rwrist -24.9301
rhand -8.1508 17.4913
rfingers 7.12502
rthumb 17.7637 -11.7174
lclavicle -1.82882e-014 8.34896e-015
lhumerus 24.8748 6.20987 90.1106
lradius 57.1683
lwrist 45.0284
lhand -20.8048 27.7799
lfingers 7.12502
lthumb 5.56284 57.6869
rfemur -38.3062 -1.2733 19.0337
rtibia 52.9996
rfoot -21.0016 -11.1507
rtoes -6.49118
lfemur -36.7005 2.19473 -20.6951
ltibia 51.5856
lfoot -21.4924 7.54082
ltoes -13.1432
2368
root 0.00263576 16.8767 -2.98706 6.65786 -2.11099 1.7499
lowerback 20.4446 2.18586 -2.09069
upperback 12.1649 2.46058 -0.265746
thorax 1.69277 1.12658 0.445074
lowerneck -0.108882 -9.04375 -6.88933
upperneck -0.889783 -12.1145 12.1767
head 0.9391 -6.07193 4.52029
rclavicle 1.61016e-014 -1.31198e-014
rhumerus 11.7487 73.3307 -36.0788
rradius 66.2442
rwrist -25.3017
rhand -7.17776 17.149
rfingers 7.12502
rthumb 18.6999 -11.9721
lclavicle 1.61016e-014 -1.31198e-014
lhumerus 23.4422 4.88287 91.0954
lradius 57.256
lwrist 48.358
lhand -21.4619 29.2798
lfingers 7.12502
lthumb 4.92839 59.2025
rfemur -38.3549 -1.49987 18.8767
rtibia 53.6488
rfoot -21.2875 -11.1555
rtoes -6.66649
lfemur -36.7822 2.17203 -20.8888
ltibia 52.2128
lfoot -21.6651 7.5154
ltoes -13.9686
2369
root 0.0168413 16.8428 -2.97981 6.40212 -1.96169 1.80357
lowerback 20.4699 2.15835 -2.21643
upperback 12.2021 2.40587 -0.297315
thorax 1.71988 1.09395 0.492462
lowerneck -0.0300467 -8.96466 -6.94821
upperneck -0.896481 -12.0142 12.4045
head 0.933129 -6.02441 4.60477
rclavicle 5.56597e-015 -1.39149e-015
rhumerus 13.3538 73.2931 -33.0718
rradius 65.7257
rwrist -25.3957
rhand -5.91959 16.9411
rfingers 7.12502
rthumb 19.9096 -12.059
lclavicle 5.56597e-015 -1.39149e-015
lhumerus 22.0385 3.33582 91.8703
lradius 57.05
lwrist 51.7216
lhand -22.4123 30.7068
lfingers 7.12502
lthumb 4.01066 60.6488
rfemur -38.3621 -1.63207 18.7757
rtibia 54.2413
rfoot -21.5157 -11.2757
rtoes -7.1501
lfemur -36.7965 2.14157 -21.0007
ltibia 52.7625
lfoot -21.7575 7.39807
ltoes -14.2832
2370
root 0.029431 16.809 -2.97519 6.20299 -1.80286 1.81742
lowerback 20.4747 2.12383 -2.35529
upperback 12.2241 2.34077 -0.291817
thorax 1.73878 1.05399 0.588821
lowerneck -0.101688 -8.85173 -7.04931
upperneck -0.743639 -11.8747 12.5864
head 0.993809 -5.9485 4.67222
rclavicle -1.8487e-014 1.33186e-014
rhumerus 15.3256 73.2327 -29.7818
rradius 65.1096
rwrist -25.5823
rhand -4.50345 16.7199
rfingers 7.12502
rthumb 21.2704 -12.1329
lclavicle -1.8487e-014 1.33186e-014
lhumerus 20.6146 1.51759 92.4047
lradius 56.6873
lwrist 54.9919
lhand -23.1904 32.4143
lfingers 7.12502
lthumb 3.25925 62.3692
rfemur -38.4322 -1.72632 18.7126
rtibia 54.784
rfoot -21.7599 -11.3883
rtoes -7.25926
lfemur -36.8801 2.14151 -21.0734
ltibia 53.2519
lfoot -21.8763 7.38168
ltoes -14.9293
2371
root 0.0432159 16.7823 -2.96698 6.03042 -1.70295 1.94966
lowerback 20.4003 2.11035 -2.60745
upperback 12.2547 2.28694 -0.310619
thorax 1.80455 1.01387 0.723579
lowerneck -0.262323 -8.72937 -7.07713
upperneck -0.504537 -11.7232 12.5996
head 1.07757 -5.86156 4.67309
rclavicle -2.40529e-014 1.43125e-014
rhumerus 17.3952 73.093 -26.4175
rradius 64.4412
rwrist -25.7212
rhand -3.09384 16.3773
rfingers 7.12502
rthumb 22.6239 -12.3168
lclavicle -2.40529e-014 1.43125e-014
lhumerus 19.2582 -0.569337 92.7448
lradius 56.1953
lwrist 57.9233
lhand -23.334 34.5303
lfingers 7.12502
lthumb 3.12055 64.4872
rfemur -38.4578 -1.81463 18.504
rtibia 55.2729
rfoot -22.0657 -11.3862
rtoes -7.08635
lfemur -36.9072 2.1449 -21.2802
ltibia 53.6538
lfoot -22.1844 7.38154
ltoes -15.3032
2372
root 0.0562432 16.7629 -2.95778 5.89766 -1.66993 2.09241
lowerback 20.275 2.09618 -2.92113
upperback 12.2455 2.22352 -0.324633
thorax 1.85077 0.965432 0.900373
lowerneck -0.217211 -8.56693 -7.11832
upperneck -0.400349 -11.514 12.5716
head 1.08049 -5.75564 4.68028
rclavicle 2.0276e-014 -2.26615e-014
rhumerus 20.0391 73.0098 -22.5639
rradius 63.6485
rwrist -25.8042
rhand -1.68079 15.7981
rfingers 7.12502
rthumb 23.9795 -12.7243
lclavicle 2.0276e-014 -2.26615e-014
lhumerus 17.898 -2.8923 92.9003
lradius 55.5644
lwrist 60.4459
lhand -23.2602 36.4419
lfingers 7.12502
lthumb 3.19182 66.3978
rfemur -38.4829 -1.8795 18.2958
rtibia 55.6742
rfoot -22.2935 -11.3553
rtoes -7.17733
lfemur -36.9276 2.23318 -21.5022
ltibia 53.9901
lfoot -22.3325 7.21905
ltoes -14.8658
2373
root 0.0676021 16.7466 -2.94924 5.7194 -1.59256 2.10381
lowerback 20.2058 2.0826 -3.08681
upperback 12.2516 2.18375 -0.289699
thorax 1.88787 0.934863 1.04004
lowerneck -0.189372 -8.42727 -7.09467
upperneck -0.305897 -11.3332 12.4992
head 1.07974 -5.66369 4.66235
rclavicle 1.19271e-015 -6.36111e-015
rhumerus 22.3601 72.7111 -19.0821
rradius 62.7452
rwrist -25.7765
rhand 0.254787 15.2583
rfingers 7.12502
rthumb 25.8344 -13.0072
lclavicle 1.19271e-015 -6.36111e-015
lhumerus 16.6277 -5.55542 92.9434
lradius 54.8443
lwrist 62.4245
lhand -22.9884 38.1653
lfingers 7.12502
lthumb 3.45429 68.1171
rfemur -38.4026 -1.89629 18.2375
rtibia 55.9871
rfoot -22.4651 -11.441
rtoes -7.35826
lfemur -36.8704 2.2949 -21.5736
ltibia 54.2681
lfoot -22.3165 7.06216
ltoes -14.427
2374
root 0.0774743 16.7338 -2.94086 5.5506 -1.53384 2.08104
lowerback 20.0944 2.10661 -3.15874
upperback 12.3341 2.21078 -0.249507
thorax 2.03019 0.940521 1.12285
lowerneck -0.374394 -8.34011 -7.03759
upperneck -0.185726 -11.217 12.4337
head 1.12654 -5.59699 4.62769
rclavicle -4.77083e-015 -5.96354e-016
rhumerus 24.2786 72.0628 -15.9821
rradius 61.825
rwrist -25.7593
rhand 2.55082 14.752
rfingers 7.12502
rthumb 28.0313 -13.1743
lclavicle -4.77083e-015 -5.96354e-016
lhumerus 15.6603 -8.64061 92.8247
lradius 54.0068
lwrist 63.7754
lhand -22.4069 40.0416
lfingers 7.12502
lthumb 4.01588 69.9835
rfemur -38.275 -1.82941 18.2105
rtibia 56.199
rfoot -22.5819 -11.5164
rtoes -7.18351
lfemur -36.788 2.38241 -21.6062
ltibia 54.4823
lfoot -22.3172 7.08313
ltoes -15.1713
2375
root 0.0892941 16.7246 -2.93304 5.42682 -1.54463 2.13126
lowerback 19.941 2.13975 -3.29348
upperback 12.4214 2.24117 -0.243995
thorax 2.19871 0.944927 1.20494
lowerneck -0.664691 -8.22259 -6.91695
upperneck -0.0165817 -11.0589 12.3001
head 1.1934 -5.50515 4.55906
rclavicle 5.86415e-015 1.78906e-015
rhumerus 26.1628 71.2638 -12.9954
rradius 60.8217
rwrist -25.6136
rhand 4.92457 14.2735
rfingers 7.12502
rthumb 30.298 -13.2594
lclavicle 5.86415e-015 1.78906e-015
lhumerus 14.8003 -12.0867 92.4436
lradius 53.2971
lwrist 64.6809
lhand -21.9509 42.1519
lfingers 7.12502
lthumb 4.4562 72.085
rfemur -38.1862 -1.76211 18.098
rtibia 56.3411
rfoot -22.658 -11.6069
rtoes -7.51291
lfemur -36.6898 2.49863 -21.7232
ltibia 54.6011
lfoot -22.39 7.12259
ltoes -15.7258
2376
root 0.103555 16.7227 -2.92329 5.25355 -1.53396 2.20555
lowerback 19.8061 2.11291 -3.4966
upperback 12.5179 2.18376 -0.216659
thorax 2.36989 0.899957 1.36381
lowerneck -0.872673 -8.03438 -6.8826
upperneck 0.107965 -10.8049 12.1681
head 1.22971 -5.36927 4.51378
rclavicle 6.16232e-015 -5.1684e-015
rhumerus 28.0232 70.2552 -10.2279
rradius 59.6465
rwrist -25.2916
rhand 7.47927 13.7551
rfingers 7.12502
rthumb 32.7318 -13.3014
lclavicle 6.16232e-015 -5.1684e-015
lhumerus 13.9242 -15.7168 91.8705
lradius 52.7559
lwrist 65.117
lhand -20.8296 44.0889
lfingers 7.12502
lthumb 5.53887 73.9965
rfemur -37.9726 -1.72981 17.9425
rtibia 56.3863
rfoot -22.6899 -11.7124
rtoes -7.78549
lfemur -36.4501 2.53178 -21.8636
ltibia 54.6036
lfoot -22.4478 7.08525
ltoes -15.65
